<?xml version="1.0" encoding="UTF-8" standalone="no"?>
<!DOCTYPE svg PUBLIC "-//W3C//DTD SVG 1.1//EN"
 "http://www.w3.org/Graphics/SVG/1.1/DTD/svg11.dtd">
<!-- Generated by graphviz version 2.26.3 (20100126.1600)
 -->
<!-- Title: G Pages: 1 -->
<svg width="746pt" height="202pt"
 viewBox="0.00 0.00 746.00 202.00" xmlns="http://www.w3.org/2000/svg" xmlns:xlink="http://www.w3.org/1999/xlink">
<g id="graph1" class="graph" transform="scale(1 1) rotate(0) translate(4 198)">
<title>G</title>
<polygon fill="white" stroke="white" points="-4,5 -4,-198 743,-198 743,5 -4,5"/>
<g id="graph2" class="cluster"><title>cluster0</title>
<polygon fill="none" stroke="black" points="74,-44 74,-186 649,-186 649,-44 74,-44"/>
<text text-anchor="middle" x="361.5" y="-169.4" font-family="Times Roman,serif" font-size="14.00">主体框架</text>
</g>
<g id="graph3" class="cluster"><title>cluster1</title>
<polygon fill="none" stroke="black" points="82,-52 82,-151 242,-151 242,-52 82,-52"/>
<text text-anchor="middle" x="162" y="-134.4" font-family="Times Roman,serif" font-size="14.00">预处理模块</text>
</g>
<g id="graph4" class="cluster"><title>cluster2</title>
<polygon fill="none" stroke="black" points="262,-52 262,-151 438,-151 438,-52 262,-52"/>
<text text-anchor="middle" x="350" y="-134.4" font-family="Times Roman,serif" font-size="14.00">网页聚类模块</text>
</g>
<g id="graph5" class="cluster"><title>cluster3</title>
<polygon fill="none" stroke="black" points="458,-52 458,-151 641,-151 641,-52 458,-52"/>
<text text-anchor="middle" x="549.5" y="-134.4" font-family="Times Roman,serif" font-size="14.00">模板生成和内容提取模块</text>
</g>
<!-- A -->
<g id="node3" class="node"><title>A</title>
<polygon fill="darkturquoise" stroke="darkturquoise" points="132,-116 102,-116 90,-104 90,-72 102,-60 132,-60 144,-72 144,-104 132,-116"/>
<path fill="darkturquoise" stroke="darkturquoise" d="M102,-116C96,-116 90,-110 90,-104"/>
<path fill="darkturquoise" stroke="darkturquoise" d="M90,-72C90,-66 96,-60 102,-60"/>
<path fill="darkturquoise" stroke="darkturquoise" d="M132,-60C138,-60 144,-66 144,-72"/>
<path fill="darkturquoise" stroke="darkturquoise" d="M144,-104C144,-110 138,-116 132,-116"/>
<polyline fill="none" stroke="darkturquoise" points="132,-116 102,-116 "/>
<path fill="none" stroke="darkturquoise" d="M102,-116C96,-116 90,-110 90,-104"/>
<polyline fill="none" stroke="darkturquoise" points="90,-104 90,-72 "/>
<path fill="none" stroke="darkturquoise" d="M90,-72C90,-66 96,-60 102,-60"/>
<polyline fill="none" stroke="darkturquoise" points="102,-60 132,-60 "/>
<path fill="none" stroke="darkturquoise" d="M132,-60C138,-60 144,-66 144,-72"/>
<polyline fill="none" stroke="darkturquoise" points="144,-72 144,-104 "/>
<path fill="none" stroke="darkturquoise" d="M144,-104C144,-110 138,-116 132,-116"/>
<text text-anchor="middle" x="117" y="-102.1" font-family="Times Roman,serif" font-size="11.00" fill="white">过滤</text>
<text text-anchor="middle" x="117" y="-86.1" font-family="Times Roman,serif" font-size="11.00" fill="white">无用</text>
<text text-anchor="middle" x="117" y="-70.1" font-family="Times Roman,serif" font-size="11.00" fill="white">网页</text>
</g>
<!-- B -->
<g id="node4" class="node"><title>B</title>
<polygon fill="darkturquoise" stroke="darkturquoise" points="222,-116 192,-116 180,-104 180,-72 192,-60 222,-60 234,-72 234,-104 222,-116"/>
<path fill="darkturquoise" stroke="darkturquoise" d="M192,-116C186,-116 180,-110 180,-104"/>
<path fill="darkturquoise" stroke="darkturquoise" d="M180,-72C180,-66 186,-60 192,-60"/>
<path fill="darkturquoise" stroke="darkturquoise" d="M222,-60C228,-60 234,-66 234,-72"/>
<path fill="darkturquoise" stroke="darkturquoise" d="M234,-104C234,-110 228,-116 222,-116"/>
<polyline fill="none" stroke="darkturquoise" points="222,-116 192,-116 "/>
<path fill="none" stroke="darkturquoise" d="M192,-116C186,-116 180,-110 180,-104"/>
<polyline fill="none" stroke="darkturquoise" points="180,-104 180,-72 "/>
<path fill="none" stroke="darkturquoise" d="M180,-72C180,-66 186,-60 192,-60"/>
<polyline fill="none" stroke="darkturquoise" points="192,-60 222,-60 "/>
<path fill="none" stroke="darkturquoise" d="M222,-60C228,-60 234,-66 234,-72"/>
<polyline fill="none" stroke="darkturquoise" points="234,-72 234,-104 "/>
<path fill="none" stroke="darkturquoise" d="M234,-104C234,-110 228,-116 222,-116"/>
<text text-anchor="middle" x="207" y="-102.1" font-family="Times Roman,serif" font-size="11.00" fill="white">检测</text>
<text text-anchor="middle" x="207" y="-86.1" font-family="Times Roman,serif" font-size="11.00" fill="white">重复</text>
<text text-anchor="middle" x="207" y="-70.1" font-family="Times Roman,serif" font-size="11.00" fill="white">记录</text>
</g>
<!-- A&#45;&gt;B -->
<g id="edge6" class="edge"><title>A&#45;&gt;B</title>
<path fill="none" stroke="black" d="M144.003,-88C152.028,-88 160.967,-88 169.531,-88"/>
<polygon fill="black" stroke="black" points="169.705,-91.5001 179.705,-88 169.705,-84.5001 169.705,-91.5001"/>
</g>
<!-- C -->
<g id="node6" class="node"><title>C</title>
<polygon fill="darkturquoise" stroke="darkturquoise" points="320,-116 282,-116 270,-104 270,-72 282,-60 320,-60 332,-72 332,-104 320,-116"/>
<path fill="darkturquoise" stroke="darkturquoise" d="M282,-116C276,-116 270,-110 270,-104"/>
<path fill="darkturquoise" stroke="darkturquoise" d="M270,-72C270,-66 276,-60 282,-60"/>
<path fill="darkturquoise" stroke="darkturquoise" d="M320,-60C326,-60 332,-66 332,-72"/>
<path fill="darkturquoise" stroke="darkturquoise" d="M332,-104C332,-110 326,-116 320,-116"/>
<polyline fill="none" stroke="darkturquoise" points="320,-116 282,-116 "/>
<path fill="none" stroke="darkturquoise" d="M282,-116C276,-116 270,-110 270,-104"/>
<polyline fill="none" stroke="darkturquoise" points="270,-104 270,-72 "/>
<path fill="none" stroke="darkturquoise" d="M270,-72C270,-66 276,-60 282,-60"/>
<polyline fill="none" stroke="darkturquoise" points="282,-60 320,-60 "/>
<path fill="none" stroke="darkturquoise" d="M320,-60C326,-60 332,-66 332,-72"/>
<polyline fill="none" stroke="darkturquoise" points="332,-72 332,-104 "/>
<path fill="none" stroke="darkturquoise" d="M332,-104C332,-110 326,-116 320,-116"/>
<text text-anchor="middle" x="301" y="-102.1" font-family="Times Roman,serif" font-size="11.00" fill="white">计算网页</text>
<text text-anchor="middle" x="301" y="-86.1" font-family="Times Roman,serif" font-size="11.00" fill="white">结构相似</text>
<text text-anchor="middle" x="301" y="-70.1" font-family="Times Roman,serif" font-size="11.00" fill="white">度</text>
</g>
<!-- B&#45;&gt;C -->
<g id="edge7" class="edge"><title>B&#45;&gt;C</title>
<path fill="none" stroke="black" d="M234.189,-88C242.217,-88 251.189,-88 259.888,-88"/>
<polygon fill="black" stroke="black" points="259.901,-91.5001 269.901,-88 259.901,-84.5001 259.901,-91.5001"/>
</g>
<!-- D -->
<g id="node7" class="node"><title>D</title>
<polygon fill="darkturquoise" stroke="darkturquoise" points="418,-108 380,-108 368,-96 368,-80 380,-68 418,-68 430,-80 430,-96 418,-108"/>
<path fill="darkturquoise" stroke="darkturquoise" d="M380,-108C374,-108 368,-102 368,-96"/>
<path fill="darkturquoise" stroke="darkturquoise" d="M368,-80C368,-74 374,-68 380,-68"/>
<path fill="darkturquoise" stroke="darkturquoise" d="M418,-68C424,-68 430,-74 430,-80"/>
<path fill="darkturquoise" stroke="darkturquoise" d="M430,-96C430,-102 424,-108 418,-108"/>
<polyline fill="none" stroke="darkturquoise" points="418,-108 380,-108 "/>
<path fill="none" stroke="darkturquoise" d="M380,-108C374,-108 368,-102 368,-96"/>
<polyline fill="none" stroke="darkturquoise" points="368,-96 368,-80 "/>
<path fill="none" stroke="darkturquoise" d="M368,-80C368,-74 374,-68 380,-68"/>
<polyline fill="none" stroke="darkturquoise" points="380,-68 418,-68 "/>
<path fill="none" stroke="darkturquoise" d="M418,-68C424,-68 430,-74 430,-80"/>
<polyline fill="none" stroke="darkturquoise" points="430,-80 430,-96 "/>
<path fill="none" stroke="darkturquoise" d="M430,-96C430,-102 424,-108 418,-108"/>
<text text-anchor="middle" x="399" y="-94.1" font-family="Times Roman,serif" font-size="11.00" fill="white">网页聚类</text>
<text text-anchor="middle" x="399" y="-78.1" font-family="Times Roman,serif" font-size="11.00" fill="white">算法</text>
</g>
<!-- C&#45;&gt;D -->
<g id="edge8" class="edge"><title>C&#45;&gt;D</title>
<path fill="none" stroke="black" d="M332.008,-88C340.141,-88 349.041,-88 357.622,-88"/>
<polygon fill="black" stroke="black" points="357.858,-91.5001 367.858,-88 357.858,-84.5001 357.858,-91.5001"/>
</g>
<!-- E -->
<g id="node9" class="node"><title>E</title>
<polygon fill="darkturquoise" stroke="darkturquoise" points="516,-108 478,-108 466,-96 466,-80 478,-68 516,-68 528,-80 528,-96 516,-108"/>
<path fill="darkturquoise" stroke="darkturquoise" d="M478,-108C472,-108 466,-102 466,-96"/>
<path fill="darkturquoise" stroke="darkturquoise" d="M466,-80C466,-74 472,-68 478,-68"/>
<path fill="darkturquoise" stroke="darkturquoise" d="M516,-68C522,-68 528,-74 528,-80"/>
<path fill="darkturquoise" stroke="darkturquoise" d="M528,-96C528,-102 522,-108 516,-108"/>
<polyline fill="none" stroke="darkturquoise" points="516,-108 478,-108 "/>
<path fill="none" stroke="darkturquoise" d="M478,-108C472,-108 466,-102 466,-96"/>
<polyline fill="none" stroke="darkturquoise" points="466,-96 466,-80 "/>
<path fill="none" stroke="darkturquoise" d="M466,-80C466,-74 472,-68 478,-68"/>
<polyline fill="none" stroke="darkturquoise" points="478,-68 516,-68 "/>
<path fill="none" stroke="darkturquoise" d="M516,-68C522,-68 528,-74 528,-80"/>
<polyline fill="none" stroke="darkturquoise" points="528,-80 528,-96 "/>
<path fill="none" stroke="darkturquoise" d="M528,-96C528,-102 522,-108 516,-108"/>
<text text-anchor="middle" x="497" y="-94.1" font-family="Times Roman,serif" font-size="11.00" fill="white">模板检测</text>
<text text-anchor="middle" x="497" y="-78.1" font-family="Times Roman,serif" font-size="11.00" fill="white">与生成</text>
</g>
<!-- D&#45;&gt;E -->
<g id="edge9" class="edge"><title>D&#45;&gt;E</title>
<path fill="none" stroke="black" d="M430.008,-88C438.141,-88 447.041,-88 455.622,-88"/>
<polygon fill="black" stroke="black" points="455.858,-91.5001 465.858,-88 455.858,-84.5001 455.858,-91.5001"/>
</g>
<!-- F -->
<g id="node10" class="node"><title>F</title>
<polygon fill="darkturquoise" stroke="darkturquoise" points="621,-116 591,-116 579,-104 579,-72 591,-60 621,-60 633,-72 633,-104 621,-116"/>
<path fill="darkturquoise" stroke="darkturquoise" d="M591,-116C585,-116 579,-110 579,-104"/>
<path fill="darkturquoise" stroke="darkturquoise" d="M579,-72C579,-66 585,-60 591,-60"/>
<path fill="darkturquoise" stroke="darkturquoise" d="M621,-60C627,-60 633,-66 633,-72"/>
<path fill="darkturquoise" stroke="darkturquoise" d="M633,-104C633,-110 627,-116 621,-116"/>
<polyline fill="none" stroke="darkturquoise" points="621,-116 591,-116 "/>
<path fill="none" stroke="darkturquoise" d="M591,-116C585,-116 579,-110 579,-104"/>
<polyline fill="none" stroke="darkturquoise" points="579,-104 579,-72 "/>
<path fill="none" stroke="darkturquoise" d="M579,-72C579,-66 585,-60 591,-60"/>
<polyline fill="none" stroke="darkturquoise" points="591,-60 621,-60 "/>
<path fill="none" stroke="darkturquoise" d="M621,-60C627,-60 633,-66 633,-72"/>
<polyline fill="none" stroke="darkturquoise" points="633,-72 633,-104 "/>
<path fill="none" stroke="darkturquoise" d="M633,-104C633,-110 627,-116 621,-116"/>
<text text-anchor="middle" x="606" y="-102.1" font-family="Times Roman,serif" font-size="11.00" fill="white">网页</text>
<text text-anchor="middle" x="606" y="-86.1" font-family="Times Roman,serif" font-size="11.00" fill="white">内容</text>
<text text-anchor="middle" x="606" y="-70.1" font-family="Times Roman,serif" font-size="11.00" fill="white">抽取</text>
</g>
<!-- E&#45;&gt;F -->
<g id="edge10" class="edge"><title>E&#45;&gt;F</title>
<path fill="none" stroke="black" d="M528.235,-88C540.843,-88 555.497,-88 568.662,-88"/>
<polygon fill="black" stroke="black" points="568.834,-91.5001 578.834,-88 568.834,-84.5001 568.834,-91.5001"/>
</g>
<!-- feed -->
<g id="node12" class="node"><title>feed</title>
<polygon fill="gray" stroke="gray" points="636,-36 576,-36 564,-24 564,-12 576,-1.57334e-14 636,-5.58284e-15 648,-12 648,-24 636,-36"/>
<path fill="gray" stroke="gray" d="M576,-36C570,-36 564,-30 564,-24"/>
<path fill="gray" stroke="gray" d="M564,-12C564,-6 570,-1.67485e-14 576,-1.57334e-14"/>
<path fill="gray" stroke="gray" d="M636,-5.58284e-15C642,-4.56777e-15 648,-6 648,-12"/>
<path fill="gray" stroke="gray" d="M648,-24C648,-30 642,-36 636,-36"/>
<polyline fill="none" stroke="gray" points="636,-36 576,-36 "/>
<path fill="none" stroke="gray" d="M576,-36C570,-36 564,-30 564,-24"/>
<polyline fill="none" stroke="gray" points="564,-24 564,-12 "/>
<path fill="none" stroke="gray" d="M564,-12C564,-6 570,-1.67485e-14 576,-1.57334e-14"/>
<polyline fill="none" stroke="gray" points="576,-1.57334e-14 636,-5.58284e-15 "/>
<path fill="none" stroke="gray" d="M636,-5.58284e-15C642,-4.56777e-15 648,-6 648,-12"/>
<polyline fill="none" stroke="gray" points="648,-12 648,-24 "/>
<path fill="none" stroke="gray" d="M648,-24C648,-30 642,-36 636,-36"/>
<text text-anchor="middle" x="606" y="-16.1" font-family="Times Roman,serif" font-size="11.00" fill="white">新的网页输入</text>
</g>
<!-- E&#45;&gt;feed -->
<!-- output -->
<g id="node16" class="node"><title>output</title>
<polygon fill="gray" stroke="gray" points="726,-107 696,-107 684,-95 684,-81 696,-69 726,-69 738,-81 738,-95 726,-107"/>
<path fill="gray" stroke="gray" d="M696,-107C690,-107 684,-101 684,-95"/>
<path fill="gray" stroke="gray" d="M684,-81C684,-75 690,-69 696,-69"/>
<path fill="gray" stroke="gray" d="M726,-69C732,-69 738,-75 738,-81"/>
<path fill="gray" stroke="gray" d="M738,-95C738,-101 732,-107 726,-107"/>
<polyline fill="none" stroke="gray" points="726,-107 696,-107 "/>
<path fill="none" stroke="gray" d="M696,-107C690,-107 684,-101 684,-95"/>
<polyline fill="none" stroke="gray" points="684,-95 684,-81 "/>
<path fill="none" stroke="gray" d="M684,-81C684,-75 690,-69 696,-69"/>
<polyline fill="none" stroke="gray" points="696,-69 726,-69 "/>
<path fill="none" stroke="gray" d="M726,-69C732,-69 738,-75 738,-81"/>
<polyline fill="none" stroke="gray" points="738,-81 738,-95 "/>
<path fill="none" stroke="gray" d="M738,-95C738,-101 732,-107 726,-107"/>
<text text-anchor="middle" x="711" y="-93.1" font-family="Times Roman,serif" font-size="11.00" fill="white">XML</text>
<text text-anchor="middle" x="711" y="-79.1" font-family="Times Roman,serif" font-size="11.00" fill="white">输出</text>
</g>
<!-- F&#45;&gt;output -->
<g id="edge18" class="edge"><title>F&#45;&gt;output</title>
<path fill="none" stroke="black" d="M633.04,-88C645.314,-88 660.038,-88 673.368,-88"/>
<polygon fill="black" stroke="black" points="673.687,-91.5001 683.687,-88 673.687,-84.5001 673.687,-91.5001"/>
</g>
<!-- feed&#45;&gt;F -->
<g id="edge12" class="edge"><title>feed&#45;&gt;F</title>
<path fill="none" stroke="black" stroke-width="2" d="M606,-36.0469C606,-40.6617 606,-45.2765 606,-49.8913"/>
<polygon fill="black" stroke="black" points="602.5,-49.994 606,-59.994 609.5,-49.9941 602.5,-49.994"/>
</g>
<!-- input -->
<g id="node15" class="node"><title>input</title>
<polygon fill="gray" stroke="gray" points="42,-116 12,-116 1.67485e-14,-104 4.56777e-15,-72 12,-60 42,-60 54,-72 54,-104 42,-116"/>
<path fill="gray" stroke="gray" d="M12,-116C6,-116 1.90324e-14,-110 1.67485e-14,-104"/>
<path fill="gray" stroke="gray" d="M4.56777e-15,-72C2.28389e-15,-66 6,-60 12,-60"/>
<path fill="gray" stroke="gray" d="M42,-60C48,-60 54,-66 54,-72"/>
<path fill="gray" stroke="gray" d="M54,-104C54,-110 48,-116 42,-116"/>
<polyline fill="none" stroke="gray" points="42,-116 12,-116 "/>
<path fill="none" stroke="gray" d="M12,-116C6,-116 1.90324e-14,-110 1.67485e-14,-104"/>
<polyline fill="none" stroke="gray" points="1.67485e-14,-104 4.56777e-15,-72 "/>
<path fill="none" stroke="gray" d="M4.56777e-15,-72C2.28389e-15,-66 6,-60 12,-60"/>
<polyline fill="none" stroke="gray" points="12,-60 42,-60 "/>
<path fill="none" stroke="gray" d="M42,-60C48,-60 54,-66 54,-72"/>
<polyline fill="none" stroke="gray" points="54,-72 54,-104 "/>
<path fill="none" stroke="gray" d="M54,-104C54,-110 48,-116 42,-116"/>
<text text-anchor="middle" x="27" y="-102.1" font-family="Times Roman,serif" font-size="11.00" fill="white">输入</text>
<text text-anchor="middle" x="27" y="-86.1" font-family="Times Roman,serif" font-size="11.00" fill="white">网页</text>
<text text-anchor="middle" x="27" y="-70.1" font-family="Times Roman,serif" font-size="11.00" fill="white">集合</text>
</g>
<!-- input&#45;&gt;A -->
<g id="edge16" class="edge"><title>input&#45;&gt;A</title>
<path fill="none" stroke="black" d="M54.003,-88C62.0277,-88 70.9665,-88 79.5309,-88"/>
<polygon fill="black" stroke="black" points="79.7051,-91.5001 89.705,-88 79.705,-84.5001 79.7051,-91.5001"/>
</g>
</g>
</svg>
